<svg xmlns="http://www.w3.org/2000/svg" width="36" height="33" viewBox="0 0 36 33">
  <g id="Group_16892" data-name="Group 16892" transform="translate(-130 -350)">
    <rect id="Rectangle_6664" data-name="Rectangle 6664" width="36" height="33" rx="4" transform="translate(130 350)" fill="#1c76b9"/>
    <path id="Icon_awesome-list" data-name="Icon awesome-list" d="M3.1,15.778H.62A.62.62,0,0,0,0,16.4v2.481a.62.62,0,0,0,.62.62H3.1a.62.62,0,0,0,.62-.62V16.4A.62.62,0,0,0,3.1,15.778Zm0-12.4H.62A.62.62,0,0,0,0,4V6.476a.62.62,0,0,0,.62.62H3.1a.62.62,0,0,0,.62-.62V4A.62.62,0,0,0,3.1,3.375Zm0,6.2H.62A.62.62,0,0,0,0,10.2v2.481a.62.62,0,0,0,.62.62H3.1a.62.62,0,0,0,.62-.62V10.2A.62.62,0,0,0,3.1,9.577ZM19.225,16.4H6.822a.62.62,0,0,0-.62.62v1.24a.62.62,0,0,0,.62.62h12.4a.62.62,0,0,0,.62-.62v-1.24A.62.62,0,0,0,19.225,16.4Zm0-12.4H6.822a.62.62,0,0,0-.62.62v1.24a.62.62,0,0,0,.62.62h12.4a.62.62,0,0,0,.62-.62V4.615A.62.62,0,0,0,19.225,4Zm0,6.2H6.822a.62.62,0,0,0-.62.62v1.24a.62.62,0,0,0,.62.62h12.4a.62.62,0,0,0,.62-.62v-1.24A.62.62,0,0,0,19.225,10.2Z" transform="translate(138.139 354.925)" fill="#fff"/>
  </g>
</svg>
