<svg xmlns="http://www.w3.org/2000/svg" width="51.662" height="51.642" viewBox="0 0 51.662 51.642">
  <g id="Icon_ionic-logo-buffer" data-name="Icon ionic-logo-buffer" transform="translate(-4.488 -4.5)">
    <g id="Group_16819" data-name="Group 16819" transform="translate(4.488 4.5)">
      <path id="Path_13013" data-name="Path 13013" d="M5.4,18.016,28.154,29a5.662,5.662,0,0,0,4.33,0L55.24,18.016c1.2-.578,1.2-1.52,0-2.1L32.485,4.93a5.662,5.662,0,0,0-4.33,0L5.4,15.918C4.2,16.5,4.2,17.437,5.4,18.016Z" transform="translate(-4.475 -4.5)" fill="#fff"/>
      <path id="Path_13014" data-name="Path 13014" d="M55.253,18.629s-4.156-2-4.707-2.273a1.113,1.113,0,0,0-1.278.013c-.578.269-16.784,8.1-16.784,8.1a5.662,5.662,0,0,1-4.33,0s-15.775-7.612-16.515-7.975a1.54,1.54,0,0,0-1.762-.04L5.385,18.616c-1.2.578-1.2,1.52,0,2.1L28.14,31.7a5.662,5.662,0,0,0,4.33,0L55.226,20.714C56.449,20.149,56.449,19.207,55.253,18.629Z" transform="translate(-4.488 6.143)" fill="#fff"/>
    </g>
    <path id="Path_13015" data-name="Path 13015" d="M55.246,25.611s-4.156-2-4.707-2.273a1.113,1.113,0,0,0-1.278.013c-.578.269-16.77,8.109-16.77,8.109a5.662,5.662,0,0,1-4.33,0s-15.775-7.612-16.515-7.975a1.54,1.54,0,0,0-1.762-.04L5.392,25.611c-1.2.578-1.2,1.52,0,2.1L28.147,38.7a5.022,5.022,0,0,0,2.165.43,5.227,5.227,0,0,0,2.165-.43L55.233,27.709C56.443,27.131,56.443,26.19,55.246,25.611Z" transform="translate(0.006 17.015)" fill="#fff"/>
  </g>
</svg>
