<svg id="_5f6ba87d57a295249042c5d4_mediamath_logo-bd409db3ed7432cb73e89caa0e49080506b4ab412031a08247f0dc520195e1cc" data-name="5f6ba87d57a295249042c5d4_mediamath_logo-bd409db3ed7432cb73e89caa0e49080506b4ab412031a08247f0dc520195e1cc" xmlns="http://www.w3.org/2000/svg" width="123.693" height="78.29" viewBox="0 0 123.693 78.29">
  <path id="Path_2" data-name="Path 2" d="M125.76,27.233V14.823H95.083V3H70.372v8.228H60.226V6.542H32.744V17.433H12.879v9.8H7.5V58.016H32.744v6.338H40.92v7.083H70.372V81.29H95.083V68.614H125.76v-10.6h5.432V27.233Zm1.784,27.135h-5.432v10.6H91.435V77.642H74.02V67.762H44.568V60.679H36.393V54.341H11.148V30.854h5.379V21.081H36.393V10.19H56.6V25.875h3.968v-11H73.993V6.648H91.409v11.8h30.7V30.881h5.432V54.368Z" transform="translate(-7.5 -3)" fill="#fff"/>
  <g id="Group_8" data-name="Group 8" transform="translate(3.648 3.648)">
    <rect id="Rectangle_5" data-name="Rectangle 5" width="19.865" height="9.8" transform="translate(5.379 14.433)" fill="#5d873b"/>
    <rect id="Rectangle_6" data-name="Rectangle 6" width="13.421" height="10.998" transform="translate(49.424 8.228)" fill="#7a69ad"/>
    <rect id="Rectangle_7" data-name="Rectangle 7" width="8.175" height="6.338" transform="translate(25.218 47.72)" fill="#df3a6e"/>
    <path id="Path_3" data-name="Path 3" d="M124.1,50.691V45.685h12.01V30H115.9V50.691Z" transform="translate(-90.682 -26.458)" fill="#df3a6e"/>
    <path id="Path_4" data-name="Path 4" d="M146.7,195.9v13.395h29.425V195.9Z" transform="translate(-113.28 -148.18)" fill="#55bceb"/>
    <path id="Path_5" data-name="Path 5" d="M146.7,93.906h29.425V88.9H146.7Z" transform="translate(-113.28 -69.674)" fill="#55bceb"/>
    <rect id="Rectangle_8" data-name="Rectangle 8" width="30.677" height="12.409" transform="translate(80.287 11.797)" fill="#c42033"/>
    <rect id="Rectangle_9" data-name="Rectangle 9" width="30.677" height="10.598" transform="translate(80.287 47.72)" fill="#c42033"/>
    <path id="Path_6" data-name="Path 6" d="M257.2,40.933h17.442V16.7H257.2V40.933Z" transform="translate(-194.355 -16.7)" fill="#f69f1d"/>
    <path id="Path_7" data-name="Path 7" d="M257.2,195.9v23.274h17.442V195.9Z" transform="translate(-194.355 -148.18)" fill="#f69f1d"/>
    <path id="Path_8" data-name="Path 8" d="M101.487,107.7H21.2v23.487H137.6V107.7H101.487ZM45.646,126.447H43.728V114.73h-.053l-4.82,11.717H37.577l-4.82-11.717H32.73v11.717H30.787V112.2h2.876l4.527,10.785h.08l4.5-10.785h2.876Zm11.557-4.1H49.56a2.985,2.985,0,0,0,3.222,2.769,3.217,3.217,0,0,0,2.61-1.438l1.358,1.039a5.01,5.01,0,0,1-4.234,1.944,4.739,4.739,0,0,1-4.9-5.006,4.836,4.836,0,0,1,4.926-5.006c3.355,0,4.66,2.583,4.66,5.033v.666Zm11.238,4.1H63.248A4.536,4.536,0,0,1,58.4,121.68a4.727,4.727,0,0,1,4.847-5.006,4.007,4.007,0,0,1,3.329,1.6h.053V112.2H68.44Zm4.181,0H70.81v-9.533h1.811Zm0-11.078H70.81v-1.811h1.811Zm10.2,9.347v1.731H77.867c-1.758,0-3.3-.772-3.3-2.61,0-2.45,2.343-3.3,5.246-3.3h1.331v-.4a2.055,2.055,0,0,0-2.263-2.024,3.957,3.957,0,0,0-2.716,1.092l-1.092-1.118a5.566,5.566,0,0,1,3.781-1.411c2.823,0,3.994,1.518,3.994,3.169v4.873Zm17.309,1.731H98.185V114.73h-.027l-4.82,11.717H92.06L87.24,114.73h-.053v11.717H85.243V112.2h2.876l4.527,10.785h.08l4.5-10.785H100.1v14.247Zm9.693-1.731v1.731h-4.98c-1.758,0-3.3-.772-3.3-2.61,0-2.45,2.343-3.3,5.246-3.3h1.331v-.4a2.055,2.055,0,0,0-2.263-2.024,3.957,3.957,0,0,0-2.716,1.092l-1.092-1.118a5.566,5.566,0,0,1,3.781-1.411c2.823,0,3.994,1.518,3.994,3.169Zm7.962,1.651a4.186,4.186,0,0,1-1.624.32c-2.8,0-2.849-1.7-2.849-3.249v-4.98h-2.1v-1.571h2.1v-2.663h1.811v2.663H117.7v1.571h-2.556v4.314c0,1.065,0,2.184,1.358,2.184a2.326,2.326,0,0,0,1.278-.293Zm10.226.08H126.2V120.8c0-1.784-1.039-2.45-2.184-2.45-1.518,0-2.663.959-2.663,3.169v4.926h-1.811V112.2h1.811l.053,4.474h3.142a3.294,3.294,0,0,1,3.462,3.648Z" transform="translate(-21.2 -83.467)" fill="#025387"/>
    <g id="Group_4" data-name="Group 4" transform="translate(27.322 33.579)">
      <path id="Path_9" data-name="Path 9" d="M130.656,146.8a2.951,2.951,0,0,0-2.956,2.769h5.725A2.6,2.6,0,0,0,130.656,146.8Z" transform="translate(-126.661 -145.735)" fill="#005487"/>
      <path id="Path_10" data-name="Path 10" d="M131.656,147.7H123.8v-1.065a3.981,3.981,0,0,1,4.021-3.835,3.62,3.62,0,0,1,3.808,3.808Zm-5.3-2.1h2.876a1.539,1.539,0,0,0-1.438-.666A1.812,1.812,0,0,0,126.356,145.6Z" transform="translate(-123.8 -142.8)" fill="#025387"/>
    </g>
    <g id="Group_5" data-name="Group 5" transform="translate(54.084 37.308)">
      <path id="Path_11" data-name="Path 11" d="M228.3,162.637c0,1.092.8,1.544,2.05,1.544a2.569,2.569,0,0,0,2.716-2.769V160.8h-.959C230.4,160.827,228.3,161.12,228.3,162.637Z" transform="translate(-227.235 -159.735)" fill="#005487"/>
      <path id="Path_12" data-name="Path 12" d="M227.416,162.312c-2.29,0-3.116-1.358-3.116-2.61,0-1.092.639-2.9,4.873-2.9H231.2v1.651A3.616,3.616,0,0,1,227.416,162.312Zm1.624-3.382c-1.545.027-2.61.32-2.61.772,0,.186,0,.479.985.479A1.422,1.422,0,0,0,229.04,158.93Z" transform="translate(-224.3 -156.8)" fill="#025387"/>
    </g>
    <g id="Group_6" data-name="Group 6" transform="translate(38.08 33.819)">
      <path id="Path_13" data-name="Path 13" d="M171.342,147.7a3.334,3.334,0,1,0,3.142,3.329A3.057,3.057,0,0,0,171.342,147.7Z" transform="translate(-167.135 -146.635)" fill="#005487"/>
      <path id="Path_14" data-name="Path 14" d="M168.407,152.461a4.384,4.384,0,1,1,4.207-4.367A4.113,4.113,0,0,1,168.407,152.461Zm0-6.631a2.272,2.272,0,1,0,2.077,2.263A2.025,2.025,0,0,0,168.407,145.83Z" transform="translate(-164.2 -143.7)" fill="#025387"/>
    </g>
    <g id="Group_7" data-name="Group 7" transform="translate(81.113 37.308)">
      <path id="Path_15" data-name="Path 15" d="M329.8,162.637c0,1.092.8,1.544,2.05,1.544a2.569,2.569,0,0,0,2.716-2.769V160.8h-.959C331.877,160.827,329.8,161.12,329.8,162.637Z" transform="translate(-328.735 -159.735)" fill="#005487"/>
      <path id="Path_16" data-name="Path 16" d="M328.916,162.312c-2.29,0-3.116-1.358-3.116-2.61,0-1.092.639-2.9,4.873-2.9H332.7v1.651A3.616,3.616,0,0,1,328.916,162.312Zm1.624-3.382c-1.544.027-2.61.32-2.61.772,0,.186,0,.479.985.479A1.455,1.455,0,0,0,330.54,158.93Z" transform="translate(-325.8 -156.8)" fill="#025387"/>
    </g>
    <path id="Path_17" data-name="Path 17" d="M64.683,135.385H64.6L60.076,124.6H57.2v14.247h1.944V127.13h.027l4.82,11.717h1.278l4.82-11.717h.027v11.717h1.944V124.6H69.183Z" transform="translate(-47.613 -95.867)" fill="#fff"/>
    <path id="Path_18" data-name="Path 18" d="M125.426,141.4a4.837,4.837,0,0,0-4.926,5.006,4.724,4.724,0,0,0,4.9,5.006,5.01,5.01,0,0,0,4.234-1.944l-1.358-1.039a3.327,3.327,0,0,1-2.61,1.438,3,3,0,0,1-3.222-2.769h7.643v-.639C130.06,143.956,128.782,141.4,125.426,141.4Zm-3.009,4.207a2.933,2.933,0,0,1,2.956-2.769,2.6,2.6,0,0,1,2.769,2.769Z" transform="translate(-94.057 -108.193)" fill="#fff"/>
    <path id="Path_19" data-name="Path 19" d="M169.128,130.671h-.053a3.972,3.972,0,0,0-3.329-1.6,4.727,4.727,0,0,0-4.847,5.006,4.536,4.536,0,0,0,4.847,4.767h5.193V124.6h-1.811Zm-3.142,6.711a3.334,3.334,0,1,1,3.142-3.329A3.057,3.057,0,0,1,165.986,137.382Z" transform="translate(-123.699 -95.867)" fill="#fff"/>
    <rect id="Rectangle_10" data-name="Rectangle 10" width="1.811" height="9.533" transform="translate(49.61 33.446)" fill="#fff"/>
    <path id="Path_20" data-name="Path 20" d="M225.787,141.4a5.566,5.566,0,0,0-3.781,1.411l1.092,1.118a3.957,3.957,0,0,1,2.716-1.092,2.055,2.055,0,0,1,2.263,2.024v.4h-1.331c-2.9,0-5.246.852-5.246,3.3,0,1.837,1.518,2.61,3.3,2.61h4.953v-6.6C229.782,142.918,228.61,141.4,225.787,141.4Zm2.29,5.779a2.569,2.569,0,0,1-2.716,2.769c-1.252,0-2.05-.453-2.05-1.544,0-1.518,2.1-1.837,3.808-1.837h.959Z" transform="translate(-168.162 -108.193)" fill="#fff"/>
    <path id="Path_21" data-name="Path 21" d="M327.287,141.4a5.566,5.566,0,0,0-3.781,1.411l1.092,1.118a3.957,3.957,0,0,1,2.716-1.092,2.055,2.055,0,0,1,2.263,2.024v.4h-1.331c-2.9,0-5.246.852-5.246,3.3,0,1.837,1.518,2.61,3.3,2.61h4.98v-6.6C331.255,142.918,330.11,141.4,327.287,141.4Zm2.29,5.779a2.569,2.569,0,0,1-2.716,2.769c-1.252,0-2.05-.453-2.05-1.544,0-1.518,2.1-1.837,3.808-1.837h.959Z" transform="translate(-242.633 -108.193)" fill="#fff"/>
    <path id="Path_22" data-name="Path 22" d="M269.283,135.385h-.08L264.676,124.6H261.8v14.247h1.917V127.13h.053l4.82,11.717h1.278l4.82-11.717h.027v11.717h1.944V124.6h-2.876Z" transform="translate(-197.73 -95.867)" fill="#fff"/>
    <path id="Path_23" data-name="Path 23" d="M363.215,140.848v-4.314H365.8v-1.571h-2.583V132.3H361.4v2.663h-2.1v1.571h2.1v4.98c0,1.518.053,3.249,2.849,3.249a4.1,4.1,0,0,0,1.624-.32v-1.651a2.723,2.723,0,0,1-1.278.293C363.215,143.032,363.215,141.913,363.215,140.848Z" transform="translate(-269.267 -101.517)" fill="#fff"/>
    <path id="Path_24" data-name="Path 24" d="M395.506,129.074h-3.142l-.053-4.474H390.5v14.247h1.811V133.92c0-2.21,1.145-3.169,2.663-3.169,1.145,0,2.184.666,2.184,2.45v5.645h1.811V132.7A3.272,3.272,0,0,0,395.506,129.074Z" transform="translate(-292.158 -95.867)" fill="#fff"/>
    <rect id="Rectangle_11" data-name="Rectangle 11" width="1.811" height="1.811" transform="translate(49.61 30.091)" fill="#fff"/>
  </g>
</svg>
