<svg xmlns="http://www.w3.org/2000/svg" width="57.307" height="63.923" viewBox="0 0 57.307 63.923">
  <g id="shield-fill-check" transform="translate(-2.872 -1.125)">
    <path id="Path_52" data-name="Path 52" d="M31.525,1.125c-2.822,0-7.542,1.061-11.987,2.237q-5.947,1.6-11.813,3.474A6.2,6.2,0,0,0,3.45,11.881C1.008,29.766,6.671,43.021,13.541,51.79a47.7,47.7,0,0,0,10.3,9.8,29.669,29.669,0,0,0,4.292,2.5,8.853,8.853,0,0,0,3.392.958,8.826,8.826,0,0,0,3.392-.958,29.67,29.67,0,0,0,4.292-2.5,47.691,47.691,0,0,0,10.305-9.8C56.38,43.021,62.043,29.766,59.6,11.881a6.2,6.2,0,0,0-4.275-5.046Q49.462,4.959,43.514,3.362C39.067,2.186,34.35,1.125,31.525,1.125ZM43.686,28.2a2.133,2.133,0,1,0-3.017-3.017L29.394,36.465l-4.885-4.888a2.133,2.133,0,0,0-3.017,3.017l6.392,6.392a2.131,2.131,0,0,0,3.017,0Z" transform="translate(0 0)" fill="#fff" fill-rule="evenodd"/>
  </g>
</svg>
