<svg xmlns="http://www.w3.org/2000/svg" width="73.288" height="68.4" viewBox="0 0 73.288 68.4">
  <path id="users" d="M22.635,34.2A13.161,13.161,0,0,0,12.52,39.086H7.4a8.751,8.751,0,0,1-5.266-1.545A5.229,5.229,0,0,1,0,33.017Q0,19.543,4.733,19.543a7.318,7.318,0,0,1,1.661.8,25.162,25.162,0,0,0,3.721,1.622,13.388,13.388,0,0,0,4.542.82,15.349,15.349,0,0,0,5.077-.877,18.993,18.993,0,0,0-.191,2.52A16.806,16.806,0,0,0,22.635,34.2ZM63.514,58.515a9.51,9.51,0,0,1-2.787,7.233,10.294,10.294,0,0,1-7.4,2.653H19.962a10.29,10.29,0,0,1-7.4-2.653,9.52,9.52,0,0,1-2.787-7.233q0-2.024.134-3.951a38.986,38.986,0,0,1,.535-4.161,32.568,32.568,0,0,1,1.01-4.141,19.5,19.5,0,0,1,1.641-3.721,13.481,13.481,0,0,1,2.365-3.092,9.925,9.925,0,0,1,3.263-2.042,11.476,11.476,0,0,1,4.257-.763,4.485,4.485,0,0,1,1.641.82q1.258.82,2.787,1.832a16.767,16.767,0,0,0,4.084,1.832A17.717,17.717,0,0,0,45.877,39.3q1.529-1.012,2.787-1.832a4.485,4.485,0,0,1,1.641-.82,11.466,11.466,0,0,1,4.257.763,9.953,9.953,0,0,1,3.263,2.042A13.406,13.406,0,0,1,60.19,42.54a19.672,19.672,0,0,1,1.641,3.721A32.333,32.333,0,0,1,62.842,50.4a38.986,38.986,0,0,1,.535,4.161q.134,1.928.134,3.951ZM24.429,9.771a9.419,9.419,0,0,1-2.862,6.909,9.4,9.4,0,0,1-6.909,2.862,9.425,9.425,0,0,1-6.909-2.862A9.41,9.41,0,0,1,4.886,9.771,9.41,9.41,0,0,1,7.748,2.862,9.425,9.425,0,0,1,14.657,0a9.4,9.4,0,0,1,6.909,2.862A9.419,9.419,0,0,1,24.429,9.771ZM51.3,24.429a14.126,14.126,0,0,1-4.293,10.364,14.112,14.112,0,0,1-10.364,4.293,14.133,14.133,0,0,1-10.364-4.293,14.118,14.118,0,0,1-4.293-10.364,14.118,14.118,0,0,1,4.293-10.364A14.133,14.133,0,0,1,36.643,9.771a14.112,14.112,0,0,1,10.364,4.293A14.126,14.126,0,0,1,51.3,24.429Zm21.986,8.589a5.233,5.233,0,0,1-2.137,4.523,8.733,8.733,0,0,1-5.266,1.545H60.768A13.161,13.161,0,0,0,50.653,34.2a16.806,16.806,0,0,0,3.092-9.771,18.993,18.993,0,0,0-.191-2.52,15.349,15.349,0,0,0,5.077.877,13.4,13.4,0,0,0,4.542-.82,25.034,25.034,0,0,0,3.721-1.622,7.26,7.26,0,0,1,1.661-.8q4.733,0,4.733,13.474ZM68.4,9.771a9.419,9.419,0,0,1-2.862,6.909,9.77,9.77,0,0,1-13.818,0,9.41,9.41,0,0,1-2.862-6.909,9.41,9.41,0,0,1,2.862-6.909,9.77,9.77,0,0,1,13.818,0A9.419,9.419,0,0,1,68.4,9.771Z" fill="#fff"/>
</svg>
